<mxfile host="app.diagrams.net" modified="2024-08-27T05:17:25.726Z" agent="Mozilla/5.0 (Windows NT 10.0; Win64; x64) AppleWebKit/537.36 (KHTML, like Gecko) Chrome/127.0.0.0 Safari/537.36" version="24.0.1" etag="Bb0jZPvdYpAwYaSPuY0G" type="github">
  <diagram name="Page-1" id="m3xAZU2b4wbmnmVLWEYK">
    <mxGraphModel>
      <root>
        <mxCell id="0" />
        <mxCell id="1" parent="0" />
      </root>
    </mxGraphModel>
  </diagram>
</mxfile>
